<svg width="48" height="14" viewBox="0 0 48 14" fill="none" xmlns="http://www.w3.org/2000/svg">
<path d="M4.46289 13.0293C3.76628 13.0293 3.41797 12.847 3.41797 12.4824V3.11719H0.664062C0.481771 3.11719 0.348307 3.04883 0.263672 2.91211C0.185547 2.77539 0.146484 2.55404 0.146484 2.24805V1.7207C0.146484 1.41471 0.185547 1.19336 0.263672 1.05664C0.348307 0.919922 0.481771 0.851562 0.664062 0.851562H8.87695C9.05924 0.851562 9.18945 0.919922 9.26758 1.05664C9.35221 1.19336 9.39453 1.41471 9.39453 1.7207V2.24805C9.39453 2.55404 9.35221 2.77539 9.26758 2.91211C9.18945 3.04883 9.05924 3.11719 8.87695 3.11719H6.11328V12.4824C6.11328 12.847 5.76497 13.0293 5.06836 13.0293H4.46289ZM16.2789 13.1465C15.094 13.1465 14.0849 12.9056 13.2516 12.4238C12.4247 11.9421 11.7932 11.2389 11.357 10.3145C10.9273 9.38346 10.7125 8.25065 10.7125 6.91602C10.7125 5.58789 10.9273 4.46159 11.357 3.53711C11.7932 2.60612 12.4247 1.90299 13.2516 1.42773C14.0849 0.945964 15.094 0.705078 16.2789 0.705078C17.4703 0.705078 18.4794 0.945964 19.3062 1.42773C20.1396 1.90299 20.7711 2.60612 21.2008 3.53711C21.6305 4.46159 21.8453 5.58789 21.8453 6.91602C21.8453 8.25065 21.6305 9.38346 21.2008 10.3145C20.7711 11.2389 20.1396 11.9421 19.3062 12.4238C18.4794 12.9056 17.4703 13.1465 16.2789 13.1465ZM16.2789 10.8613C17.2099 10.8613 17.913 10.526 18.3883 9.85547C18.8635 9.17839 19.1012 8.19857 19.1012 6.91602C19.1012 5.63346 18.8635 4.66016 18.3883 3.99609C17.913 3.33203 17.2099 3 16.2789 3C15.3544 3 14.6513 3.33529 14.1695 4.00586C13.6943 4.66992 13.4566 5.63997 13.4566 6.91602C13.4566 8.19857 13.6975 9.17839 14.1793 9.85547C14.6611 10.526 15.3609 10.8613 16.2789 10.8613ZM24.9211 13C24.6802 13 24.5044 12.9447 24.3937 12.834C24.2831 12.7233 24.2277 12.5475 24.2277 12.3066V1.53516C24.2277 1.29427 24.2831 1.12174 24.3937 1.01758C24.5044 0.906901 24.6802 0.851562 24.9211 0.851562H28.8078C29.9992 0.851562 31.0083 1.08594 31.8352 1.55469C32.6685 2.01693 33.2967 2.70052 33.7199 3.60547C34.1496 4.51042 34.3645 5.61393 34.3645 6.91602C34.3645 8.22461 34.1496 9.33138 33.7199 10.2363C33.2967 11.1413 32.6685 11.8281 31.8352 12.2969C31.0083 12.7656 29.9992 13 28.8078 13H24.9211ZM28.8078 10.7246C29.7323 10.7246 30.4322 10.4023 30.9074 9.75781C31.3827 9.10677 31.6203 8.15951 31.6203 6.91602C31.6203 5.67904 31.3827 4.73828 30.9074 4.09375C30.4322 3.44271 29.7323 3.11719 28.8078 3.11719H26.923V10.7246H28.8078ZM41.8445 13.1465C40.6596 13.1465 39.6505 12.9056 38.8172 12.4238C37.9904 11.9421 37.3589 11.2389 36.9227 10.3145C36.493 9.38346 36.2781 8.25065 36.2781 6.91602C36.2781 5.58789 36.493 4.46159 36.9227 3.53711C37.3589 2.60612 37.9904 1.90299 38.8172 1.42773C39.6505 0.945964 40.6596 0.705078 41.8445 0.705078C43.0359 0.705078 44.0451 0.945964 44.8719 1.42773C45.7052 1.90299 46.3367 2.60612 46.7664 3.53711C47.1961 4.46159 47.4109 5.58789 47.4109 6.91602C47.4109 8.25065 47.1961 9.38346 46.7664 10.3145C46.3367 11.2389 45.7052 11.9421 44.8719 12.4238C44.0451 12.9056 43.0359 13.1465 41.8445 13.1465ZM41.8445 10.8613C42.7755 10.8613 43.4786 10.526 43.9539 9.85547C44.4292 9.17839 44.6668 8.19857 44.6668 6.91602C44.6668 5.63346 44.4292 4.66016 43.9539 3.99609C43.4786 3.33203 42.7755 3 41.8445 3C40.9201 3 40.2169 3.33529 39.7352 4.00586C39.2599 4.66992 39.0223 5.63997 39.0223 6.91602C39.0223 8.19857 39.2632 9.17839 39.7449 9.85547C40.2267 10.526 40.9266 10.8613 41.8445 10.8613Z" fill="white"/>
</svg>
